<svg width="40" height="43" viewBox="0 0 40 43" fill="none" xmlns="http://www.w3.org/2000/svg">
<path fill-rule="evenodd" clip-rule="evenodd" d="M1.45094 26.66C1.37407 26.8245 1.45287 26.7184 1.62112 26.4553C1.54345 26.5172 1.48333 26.5868 1.45094 26.66Z" fill="#EE2523"/>
<path fill-rule="evenodd" clip-rule="evenodd" d="M18.4257 28.772C18.315 28.7353 16.937 27.4069 16.5943 27.0774C16.2487 26.7444 15.7741 26.7221 15.7741 26.7221C15.7741 26.7221 15.8799 26.4186 16.1508 26.3196C16.421 26.2209 16.3481 25.7927 16.3481 25.7927C16.8911 24.2187 18.3703 23.684 18.0652 23.5816C17.7989 23.4902 16.676 22.3793 16.5057 22.2143C16.703 22.4012 17.0635 22.1634 17.0635 22.1634C16.6349 21.7972 15.9167 19.7367 16.1905 19.9488C16.4624 20.1612 16.7325 20.0658 16.643 19.8462C16.5538 19.6266 16.5692 19.1033 16.5692 19.1033C16.5692 19.1033 17.4718 20.2527 17.5732 20.2342C17.4937 20.249 16.9122 20.348 16.9122 20.348C16.9122 20.348 17.6937 21.4095 18.2883 21.5191C18.2883 21.5191 17.5307 21.5157 17.3556 21.4129C17.2357 21.3471 17.3924 21.6912 17.4072 21.7242C17.7435 22.5294 18.3297 23.1351 19.1463 23.4755C18.654 23.5086 17.245 26.1364 17.245 26.1364C16.9988 26.5759 19.4939 28.589 19.4939 28.589C19.4939 28.589 18.5363 28.8014 18.4257 28.772ZM14.6671 27.1396C14.1001 27.1835 11.3811 29.0428 11.3811 29.0428C11.3811 29.0428 10.8788 28.2415 10.6844 28.3293C10.4889 28.4132 8.83719 29.4714 8.83719 29.4714L8.60502 28.1057C8.38943 26.5322 9.40971 23.9184 9.40971 23.9184C9.21613 24.6284 10.3233 26.2063 10.3233 26.2063C10.2079 24.3027 13.713 18.4664 13.713 18.4664C13.713 18.4664 12.4468 21.175 13.0301 23.362L14.9388 21.8192C14.2421 22.4855 15.6485 25.9865 15.6485 25.9865C15.6485 25.9865 15.2358 27.0956 14.6671 27.1396ZM14.2642 9.93395C14.6641 9.68162 15.1398 9.51675 15.5953 9.39604C15.5953 9.39604 13.582 10.1757 13.7086 11.6873C13.8364 13.1993 14.2605 14.6084 14.2605 14.6084C15.2468 14.2608 16.1851 14.6999 16.1851 14.6999C16.1851 14.6999 14.7094 14.6377 14.0587 15.5785C13.8338 14.9451 13.6235 14.3081 13.4401 13.6641C13.0494 12.2912 12.889 10.7907 14.2642 9.93395ZM17.6918 11.4095C17.3186 11.3653 17.1195 11.7389 17.1195 11.7389C17.1195 11.7389 17.3731 11.5411 17.9933 12.112C18.6146 12.6829 17.4559 13.7079 17.4559 13.7079C17.4559 13.7079 17.255 11.9216 15.8321 12.6318C15.8321 12.6318 16.6301 12.0753 16.4929 11.7937C16.104 10.9883 14.9868 12.1484 14.9868 12.1484C15.9002 10.022 18.0641 11.4496 17.6918 11.4095ZM20.0329 11.4823C19.3813 11.0471 19.0616 12.0865 19.0616 12.0865C19.0616 12.0865 18.976 10.6992 18.2135 10.022C18.0533 9.87947 20.0329 11.4823 20.0329 11.4823ZM26.1142 17.4964C23.138 14.4621 18.9638 14.5388 18.9638 14.5388C20.0652 13.9385 20.1094 12.6573 20.1094 12.6573C23.4202 13.6457 26.1142 17.4966 26.1142 17.4964ZM27.388 20.4065L29.2048 21.2447L26.5078 21.6946C26.5078 21.6946 26.6701 21.4095 26.3272 21.3873C25.9825 21.369 25.307 20.9371 25.272 20.7358C25.2379 20.5308 25.6489 18.9568 26.413 18.829C26.413 18.8288 26.2451 19.8427 27.388 20.4065ZM31.8672 20.9699C32.4339 21.3904 32.5869 21.7369 32.5416 22.0608C32.4948 22.3941 32.2554 22.8598 31.9773 23.2487L30.803 23.3298C30.848 23.1593 30.9402 22.9668 31.1054 22.7567C31.8773 21.7761 31.685 21.296 31.3491 21.0066C31.1149 20.8051 30.2355 20.4649 30.2355 20.4649C30.2355 20.4649 31.5244 20.7159 31.8672 20.9699ZM25.5225 18.8215L24.9464 19.2826L24.7328 20.1758C24.7328 20.1758 23.4809 20.0476 23.2625 19.9965C23.0431 19.9415 23.8378 18.6128 25.5225 18.8215ZM29.6039 26.3454C28.8709 26.8066 26.4149 26.5172 25.7142 26.2463C25.0147 25.972 23.1906 26.4807 23.1906 26.4807C23.1906 26.4807 24.3013 25.7815 24.8101 25.6974C25.3188 25.6098 26.5439 25.7451 27.8904 25.9575C29.2354 26.1733 30.2823 25.7122 30.2823 25.7122C30.2823 25.7122 30.3357 25.8876 29.6039 26.3454ZM19.7473 29.6176C18.8154 29.6727 19.5078 28.8233 19.5078 28.8233C20.6808 29.5629 22.0865 29.2186 22.0865 29.2186C21.8295 28.3293 22.5086 28.0071 22.5086 28.0071C24.4563 27.1578 25.7221 27.4733 25.7221 27.4733C28.2853 27.7662 30.1725 26.3015 30.1725 26.3015C31.1386 25.8292 31.9007 24.2571 32.4223 23.534C32.6903 23.1626 34.0136 21.3904 32.1286 20.6354C31.2454 20.2816 27.7449 18.8105 27.7449 18.8105L27.3834 16.691L24.1521 13.7005L21.2652 12.1085C21.2652 12.1085 22.4976 10.1315 21.7159 9.84993C20.9354 9.56435 19.8992 9.01181 18.8994 9.28278C17.8975 9.55718 17.3194 8.61296 16.3858 8.66773C15.4521 8.71877 14.8605 8.92407 14.8605 8.92407L9.13864 7.28768L6.40515 6.60325C6.40515 6.60325 6.25465 7.56209 6.81716 8.40422C6.81716 8.40422 3.58097 9.67445 2.9552 10.9226C2.33123 12.1708 3.14124 10.7873 4.34598 11.1055C4.34598 11.1055 1.08126 14.6671 1.37254 15.7614L1.70331 18.9277C1.70331 18.9277 -1.04675 24.8959 0.441828 23.8123C1.933 22.7324 4.13851 23.3987 3.73216 23.4684C3.42698 23.5194 2.12365 25.6716 1.62051 26.4553C2.26117 25.9427 4.22989 25.7743 4.22989 25.7743C3.28316 26.975 3.12363 30.9501 3.54511 29.7383C3.96702 28.5231 4.83062 28.6877 4.83062 28.6877C4.32386 29.3978 5.37008 33.6913 5.37008 33.6913C5.37008 33.6913 7.36452 30.6535 6.9753 31.4439C6.58837 32.2385 7.30451 33.9879 7.37096 33.1462C7.4373 32.3044 9.41254 30.3861 9.41254 30.3861C9.41254 30.3861 9.3884 31.0157 9.37271 31.393C9.41254 30.3861 11.0088 29.3139 11.0088 29.3139C11.0099 29.9396 11.3672 30.1887 11.3672 30.1887C11.5674 28.9073 14.6357 27.8752 14.6357 27.8752C14.6734 27.9998 14.7564 28.1316 14.854 28.2632L14.844 28.2557C13.6116 29.9396 13.0808 31.0525 13.0808 31.0525C13.0808 31.0525 14.1425 30.291 14.4964 30.174C14.8505 30.057 15.2632 29.9982 15.2632 29.9982C15.2632 29.9982 13.2577 31.814 12.5498 34.0394C11.842 36.2647 11.4881 37.7288 11.4881 37.7288C11.4881 37.7288 13.8476 34.9762 14.3784 34.5665C14.9094 34.1563 15.2632 33.9221 15.2632 33.9221C15.2632 33.9221 14.2016 35.5036 14.0246 36.382C13.8476 37.2606 13.7296 38.8418 13.7296 38.8418L14.4375 38.1974C14.4375 38.1974 14.6144 40.3644 15.2632 41.1843C15.9122 42.0044 17.2099 42.9999 17.2099 42.9999C17.2099 42.9999 16.1481 41.4186 16.3252 39.9544C16.502 38.4903 17.2099 37.4945 17.2099 37.4945L15.8531 38.4903C15.8531 38.4903 15.6855 36.0307 16.7426 34.6835C17.7997 33.3364 17.7997 33.3364 17.7997 33.3364L16.207 33.6913C16.207 33.6913 16.502 32.1064 17.446 31.3454C18.3896 30.5839 18.8026 30.5254 18.8026 30.5254C18.8026 30.5254 17.7997 30.2325 17.2099 30.4083C16.62 30.5839 15.8531 30.994 15.8531 30.994L16.232 29.4492C16.3056 29.4746 16.3334 29.4638 16.2514 29.3686C15.8596 28.915 16.4191 28.5084 16.4191 28.5084C17.5252 30.0895 20.6808 29.5629 19.7473 29.6176Z" fill="#EE2523"/>
<path fill-rule="evenodd" clip-rule="evenodd" d="M18.551 5.08515e-05C11.8844 5.08515e-05 5.94043 3.04918 2.03979 7.81499C5.74595 4.14336 10.8585 1.87414 16.5057 1.87414C27.8184 1.87414 36.99 10.9811 36.99 22.2143C36.99 32.0371 29.9732 40.236 20.645 42.1359C31.4094 41.0929 39.8226 32.0847 39.8226 21.1202C39.8226 9.45826 30.2987 5.08515e-05 18.551 5.08515e-05Z" fill="#EE2523"/>
</svg>
